<svg width="154" height="24" viewBox="0 0 154 24" fill="none" xmlns="http://www.w3.org/2000/svg">
<path d="M29.9045 12.9147C29.9045 7.98264 33.1476 5.12109 36.8754 5.12109C37.7054 5.12685 38.5258 5.30027 39.2881 5.63109C40.0504 5.96192 40.739 6.44343 41.3133 7.04713L39.5587 9.20705C38.8875 8.48434 37.9596 8.05893 36.9779 8.02391C34.9296 8.02391 33.3524 9.81926 33.3524 12.839C33.3524 15.8588 34.7657 17.6541 36.9232 17.6541C37.4741 17.645 38.0166 17.5176 38.5147 17.2804C39.0127 17.0431 39.4548 16.7015 39.8113 16.2784L41.5728 18.3901C40.9891 19.0915 40.2568 19.6521 39.4297 20.0306C38.6026 20.4092 37.7018 20.5961 36.7935 20.5776C33.0315 20.5432 29.9045 17.9224 29.9045 12.9147Z" fill="white"/>
<path d="M42.4395 14.6071C42.4395 10.9408 45.0407 8.67078 47.7376 8.67078C50.9397 8.67078 52.5169 11.0164 52.5169 14.105C52.5182 14.6035 52.4725 15.101 52.3803 15.5908H45.6279C45.7201 16.2876 46.0735 16.9225 46.6156 17.3651C47.1578 17.8077 47.8475 18.0244 48.5433 17.9708C49.406 17.9542 50.2473 17.697 50.9739 17.2279L52.0731 19.2502C50.897 20.0608 49.5106 20.5056 48.0858 20.5297C44.8837 20.5434 42.4395 18.356 42.4395 14.6071ZM49.6835 13.3689C49.6835 12.1239 49.1441 11.2297 47.8127 11.2297C46.7613 11.2297 45.8532 11.9175 45.6279 13.3689H49.6835Z" fill="white"/>
<path d="M53.8824 8.94575H56.6135L56.8388 10.404H56.9207C57.3803 9.89251 57.9363 9.47824 58.5564 9.18536C59.1765 8.89248 59.8482 8.72685 60.5325 8.69812C62.9767 8.69812 64.0213 10.4384 64.0213 13.2656V20.2681H60.6895V13.6645C60.6895 12.0412 60.2594 11.5253 59.324 11.5253C58.4842 11.5253 57.9585 11.9242 57.2757 12.6259V20.2681H53.8824V8.94575Z" fill="white"/>
<path d="M66.8415 16.1477V11.5802H65.3053V9.07639L67.0258 8.94569L67.415 5.9397H70.146V8.94569H72.877V11.5802H70.146V16.1133C70.146 17.3928 70.7264 17.9087 71.6003 17.9087C71.9665 17.895 72.3283 17.823 72.6722 17.6954L73.1979 20.1305C72.3925 20.4029 71.5486 20.5423 70.6991 20.5432C67.9407 20.5432 66.8415 18.7754 66.8415 16.1477Z" fill="white"/>
<path d="M74.6115 8.94592H77.3425L77.5814 10.927H77.6634C78.4827 9.41368 79.7116 8.67078 80.8518 8.67078C81.318 8.64412 81.7843 8.72164 82.2173 8.89777L81.6301 11.78C81.2345 11.6675 80.8259 11.6073 80.4148 11.6011C79.5682 11.6011 78.5373 12.1514 77.9365 13.6647V20.227H74.6115V8.94592Z" fill="white"/>
<path d="M82.4762 17.1247C82.4762 14.7378 84.3538 13.4515 88.7985 12.9975C88.8109 12.7659 88.7722 12.5345 88.6852 12.3198C88.5981 12.1051 88.4649 11.9126 88.2951 11.756C88.1254 11.5994 87.9232 11.4827 87.7033 11.4143C87.4834 11.3459 87.2512 11.3275 87.0233 11.3604C85.9756 11.4368 84.9648 11.7826 84.0875 12.3646L82.8995 10.1635C84.3243 9.22879 85.9791 8.71196 87.6788 8.67078C90.5531 8.67078 92.144 10.3217 92.144 13.7954V20.2683H89.413L89.174 19.1058H89.0921C88.2176 19.9785 87.0514 20.4912 85.8217 20.5434C85.374 20.5592 84.928 20.4812 84.5119 20.3143C84.0957 20.1475 83.7185 19.8954 83.404 19.574C83.0895 19.2527 82.8447 18.8691 82.685 18.4475C82.5253 18.0259 82.4542 17.5754 82.4762 17.1247ZM88.7985 16.9803V14.9992C86.4362 15.3225 85.6646 16.0035 85.6646 16.8564C85.6646 17.5856 86.1562 17.9433 86.9482 17.9433C87.3069 17.9249 87.6576 17.8295 87.9767 17.6634C88.2958 17.4973 88.576 17.2644 88.7985 16.9803Z" fill="white"/>
<path d="M94.473 16.7463V4.2821H97.8049V16.8839C97.8049 17.5718 98.1326 17.8332 98.4057 17.8332C98.5439 17.8381 98.682 17.8219 98.8153 17.785L99.2113 20.2613C98.6778 20.4661 98.1092 20.562 97.5386 20.5434C95.2582 20.5434 94.473 19.0369 94.473 16.7463Z" fill="white"/>
<path d="M102.045 4.73608H104.407L107.363 13.0387C107.732 14.098 108.087 15.1917 108.456 16.2717H108.551C108.92 15.1917 109.234 14.098 109.616 13.0387L112.538 4.73608H114.901V20.2682H113.078V11.718C113.078 10.3422 113.228 8.49874 113.324 7.123H113.228L112.006 10.6655L109.104 18.6999H107.807L104.892 10.6655L103.669 7.123H103.574C103.67 8.49874 103.82 10.3629 103.82 11.718V20.2682H102.045V4.73608Z" fill="white"/>
<path d="M117.844 16.0515V8.76697H119.776V15.8039C119.776 17.9432 120.425 18.858 121.933 18.858C123.101 18.858 123.907 18.2802 124.985 16.9251V8.76697H126.918V20.2682H125.327L125.163 18.466H125.095C124.036 19.7179 122.896 20.5296 121.333 20.5296C118.909 20.5502 117.844 18.9887 117.844 16.0515Z" fill="white"/>
<path d="M129.04 18.9544L129.989 17.675C130.91 18.5308 132.109 19.0198 133.362 19.0507C134.857 19.0507 135.601 18.2459 135.601 17.2623C135.601 16.0791 134.236 15.5563 132.993 15.0817C131.396 14.497 129.579 13.706 129.579 11.7593C129.579 9.92267 131.041 8.49878 133.512 8.49878C134.804 8.51876 136.053 8.9713 137.062 9.7851L136.141 11.037C135.409 10.4128 134.491 10.0522 133.533 10.0121C132.099 10.0121 131.437 10.7825 131.437 11.663C131.437 12.7567 132.672 13.1694 133.97 13.6578C135.615 14.2838 137.452 14.9579 137.452 17.1453C137.452 19.0095 135.977 20.5847 133.287 20.5847C131.729 20.5425 130.231 19.9676 129.04 18.9544Z" fill="white"/>
<path d="M139.322 5.14195C139.388 4.83456 139.556 4.55917 139.799 4.36165C140.042 4.16413 140.345 4.0564 140.657 4.0564C140.969 4.0564 141.272 4.16413 141.515 4.36165C141.758 4.55917 141.926 4.83456 141.992 5.14195C141.926 5.44933 141.758 5.72472 141.515 5.92224C141.272 6.11976 140.969 6.22749 140.657 6.22749C140.345 6.22749 140.042 6.11976 139.799 5.92224C139.556 5.72472 139.388 5.44933 139.322 5.14195ZM139.677 8.76703H141.603V20.2682H139.677V8.76703Z" fill="white"/>
<path d="M144.17 14.5314C144.17 10.6931 146.744 8.48499 149.632 8.48499C150.881 8.4866 152.079 8.98039 152.971 9.86073L151.974 11.092C151.381 10.4699 150.57 10.1048 149.714 10.074C147.666 10.074 146.13 11.8693 146.13 14.5039C146.13 17.1384 147.564 18.8994 149.66 18.8994C150.665 18.8715 151.627 18.4753 152.363 17.785L153.196 19.0851C152.189 20.0145 150.876 20.5362 149.51 20.5502C146.451 20.5502 144.17 18.3422 144.17 14.5314Z" fill="white"/>
<path d="M4.01068e-05 12.0275C-0.00756741 14.9753 1.06732 17.8218 3.01782 20.0191C4.96832 22.2164 7.65657 23.6091 10.5652 23.9293C13.4738 24.2495 16.3971 23.4745 18.7726 21.7534C21.148 20.0324 22.8077 17.4869 23.4321 14.607H20.2914C20.1835 14.629 20.0841 14.6815 20.0047 14.7583C19.7759 14.9923 19.5701 15.248 19.3902 15.5219C19.34 15.6103 19.2658 15.6825 19.1763 15.73C19.0868 15.7775 18.9858 15.7984 18.885 15.7901C18.6392 15.7901 18.3866 15.7901 18.1203 15.8245V16.8563C18.3115 16.9182 18.5163 16.9733 18.7143 17.0489C18.8168 17.0864 18.9023 17.16 18.955 17.2561C19.0077 17.3523 19.0241 17.4644 19.001 17.5717C19.001 17.8262 19.001 18.0876 18.7279 18.2114C18.071 18.4792 17.3366 18.4792 16.6797 18.2114C16.5823 18.1757 16.5007 18.1063 16.4494 18.0156C16.3982 17.9249 16.3806 17.8188 16.3998 17.7162C16.3998 17.4548 16.3451 17.1659 16.6729 17.0283C16.8777 16.9526 17.0825 16.8907 17.2942 16.8219V15.8589L13.9214 16.0171V16.8632L14.0101 16.9045C14.7475 17.1246 14.6314 17.2622 14.6041 17.9294C14.6041 18.0463 14.4129 18.2046 14.2764 18.2665C13.7938 18.4581 13.257 18.4581 12.7743 18.2665C12.3647 18.1289 12.4261 17.7918 12.4125 17.4754C12.4055 17.3565 12.4419 17.2391 12.5149 17.1454C12.5878 17.0517 12.6922 16.988 12.8085 16.9664C12.9068 16.9268 13.0071 16.8924 13.1089 16.8632V16.0378L9.82485 16.1891V16.877L10.0433 16.9389C10.8012 17.1384 10.6851 17.3103 10.6578 17.9088C10.6578 18.0257 10.5076 18.177 10.3915 18.2321C10.0805 18.3649 9.74617 18.4333 9.40837 18.4333C9.07057 18.4333 8.73622 18.3649 8.4252 18.2321C8.09066 18.1014 8.15893 17.8056 8.14528 17.5442C8.13074 17.4411 8.15295 17.3362 8.20795 17.248C8.26295 17.1599 8.34718 17.0942 8.44569 17.0627C8.63003 16.987 8.81437 16.9389 9.01237 16.877V16.2579L5.03875 16.4505V7.65262L9.01237 7.84522V7.22614C8.81437 7.16423 8.63003 7.11608 8.44569 7.04041C8.34718 7.00891 8.26295 6.94324 8.20795 6.85509C8.15295 6.76693 8.13074 6.66199 8.14528 6.5589C8.14528 6.29063 8.09066 5.99485 8.4252 5.87103C8.73582 5.73667 9.07033 5.66738 9.40837 5.66738C9.74641 5.66738 10.0809 5.73667 10.3915 5.87103C10.5076 5.92606 10.6578 6.07739 10.6578 6.18745C10.6578 6.79278 10.8012 6.96475 10.0433 7.16423L9.82485 7.22614V7.91401L13.1089 8.06534V7.23989L12.8085 7.13671C12.6922 7.11511 12.5878 7.05145 12.5149 6.9577C12.4419 6.86396 12.4055 6.74659 12.4125 6.62769C12.4125 6.30439 12.3647 5.97421 12.7743 5.83664C13.257 5.645 13.7938 5.645 14.2764 5.83664C14.4129 5.89854 14.5973 6.05676 14.6041 6.17369C14.6041 6.86156 14.7475 6.97162 14.0101 7.19862L13.9214 7.23989V8.08597L17.2942 8.24419V7.21238C17.0825 7.14359 16.8777 7.08168 16.6729 7.00602C16.3451 6.88908 16.4134 6.60017 16.3998 6.31815C16.3806 6.21556 16.3982 6.10943 16.4494 6.01871C16.5007 5.928 16.5823 5.85859 16.6797 5.82288C17.3366 5.55516 18.071 5.55516 18.7279 5.82288C19.0352 5.9467 18.9942 6.20809 19.001 6.4626C19.0241 6.56994 19.0077 6.68207 18.955 6.77819C18.9023 6.87432 18.8168 6.94793 18.7143 6.98538L18.1203 7.17798V8.20979C18.3866 8.20979 18.6392 8.25106 18.885 8.20979C18.9858 8.20156 19.0868 8.22241 19.1763 8.26992C19.2658 8.31743 19.34 8.38963 19.3902 8.47806C19.5701 8.75195 19.7759 9.00765 20.0047 9.2416C20.0859 9.3159 20.1846 9.368 20.2914 9.39293H23.4321C22.8078 6.5136 21.1487 3.96859 18.7739 2.24755C16.3992 0.526505 13.4767 -0.248975 10.5686 0.0703076C7.66049 0.38959 4.97232 1.78108 3.02128 3.97705C1.07023 6.17303 -0.00586277 9.01834 4.01068e-05 11.9656V12.0275Z" fill="white"/>
</svg>
